<svg xmlns="http://www.w3.org/2000/svg" xmlns:xlink="http://www.w3.org/1999/xlink" viewBox="257.08 127.08 145.84 291.43">
  <defs>
    <path id="a" d="M269.15 127.56l5.87.6 5.81.83 5.73 1.05 5.64 1.28 5.57 1.49 5.47 1.7 5.38 1.92 5.28 2.11 5.18 2.31 5.06 2.51 4.96 2.69 4.84 2.88 4.71 3.05 4.59 3.23 4.45 3.4 4.32 3.57 4.18 3.72 4.03 3.88 3.88 4.03 3.72 4.18 3.57 4.32 3.4 4.45 3.23 4.59 3.05 4.71 2.88 4.84 2.69 4.96 2.51 5.06 2.31 5.18 2.11 5.28 1.92 5.38 1.7 5.47 1.49 5.57 1.28 5.64 1.05 5.73.83 5.81.6 5.87.36 5.94.12 6.01-.12 6-.36 5.94-.6 5.87-.83 5.81-1.05 5.73-1.28 5.64-1.49 5.57-1.7 5.47-1.92 5.38-2.11 5.28-2.31 5.18-2.51 5.07-2.69 4.95-2.88 4.84-3.05 4.71-3.23 4.59-3.4 4.45-3.57 4.32-3.72 4.18-3.88 4.03-4.03 3.88-4.18 3.73-4.32 3.56-4.45 3.4-4.59 3.23-4.71 3.06-4.84 2.87-4.96 2.7-5.06 2.5-5.18 2.31-5.28 2.11-5.38 1.92-5.47 1.7-5.57 1.49-5.64 1.28-5.73 1.05-5.81.83-5.87.6-5.94.36-6.01.12h-.12V127.08h.12l6.01.12 5.94.36z"/>
    <path id="b" d="M368.11 266.85h-60.58c11.43-11.45 17.78-17.81 19.05-19.08.93-.94 1.44-2.2 1.44-3.52 0-1.33-.51-2.58-1.44-3.51l-2.97-2.97a4.91 4.91 0 0 0-3.49-1.45c-1.33 0-2.57.52-3.5 1.45-3.27 3.26-29.38 29.37-32.65 32.64-.93.93-1.44 2.18-1.44 3.5 0 1.34.51 2.58 1.44 3.52 3.27 3.26 29.38 29.38 32.65 32.64.93.93 2.17 1.44 3.5 1.44a4.9 4.9 0 0 0 3.49-1.44c.3-.3 2.67-2.67 2.97-2.96.93-.93 1.44-2.18 1.44-3.5 0-1.33-.51-2.5-1.44-3.43-1.29-1.28-7.71-7.68-19.26-19.19h60.72c2.72 0 5.02-2.36 5.02-5.08v-4.2c0-2.72-2.36-4.89-5.09-4.89.02 0 .06.01.14.03z"/>
    <path id="c" d="M275.02 128.16l5.81.83 5.73 1.05 5.64 1.28 5.57 1.49 5.47 1.7 5.38 1.92 5.28 2.11 5.18 2.31 5.06 2.51 4.96 2.69 4.84 2.88 4.71 3.05 4.59 3.23 4.45 3.4 4.32 3.57 4.18 3.72 4.03 3.88 3.88 4.03 3.72 4.18 3.57 4.32 3.4 4.45 3.23 4.59 3.05 4.71 2.88 4.84 2.69 4.96 2.51 5.06 2.31 5.18 2.11 5.28 1.92 5.38 1.7 5.47 1.49 5.57 1.28 5.64 1.05 5.73.83 5.81.6 5.87.36 5.94.12 6.01-.12 6-.36 5.94-.6 5.87-.83 5.81-1.05 5.73-1.28 5.64-1.49 5.57-1.7 5.47-1.92 5.38-2.11 5.28-2.31 5.18-2.51 5.07-2.69 4.95-2.88 4.84-3.05 4.71-3.23 4.59-3.4 4.45-3.57 4.32-3.72 4.18-3.88 4.03-4.03 3.88-4.18 3.73-4.32 3.56-4.45 3.4-4.59 3.23-4.71 3.06-4.84 2.87-4.96 2.7-5.06 2.5-5.18 2.31-5.28 2.11-5.38 1.92-5.47 1.7-5.57 1.49-5.64 1.28-5.73 1.05-5.81.83-5.87.6-5.94.36-6.01.12h-.12V127.08h.12l6.01.12 5.94.36 5.87.6z"/>
    <path id="d" d="M307.53 266.85c11.43-11.45 17.78-17.81 19.05-19.08.93-.94 1.44-2.2 1.44-3.52 0-1.33-.51-2.58-1.44-3.51l-2.97-2.97a4.91 4.91 0 0 0-3.49-1.45c-1.33 0-2.57.52-3.5 1.45-3.27 3.26-29.38 29.37-32.65 32.64-.93.93-1.44 2.18-1.44 3.5 0 1.34.51 2.58 1.44 3.52 3.27 3.26 29.38 29.38 32.65 32.64.93.93 2.17 1.44 3.5 1.44a4.9 4.9 0 0 0 3.49-1.44c.3-.3 2.67-2.67 2.97-2.96.93-.93 1.44-2.18 1.44-3.5 0-1.33-.51-2.5-1.44-3.43-1.29-1.28-7.71-7.68-19.26-19.19h60.72c2.72 0 5.02-2.36 5.02-5.08v-4.2c0-2.72-2.36-4.89-5.09-4.89.02 0 .06.01.14.03h-60.58z"/>
    <path id="e" d="M307.53 266.85c11.43-11.45 17.78-17.81 19.05-19.08.93-.94 1.44-2.2 1.44-3.52 0-1.33-.51-2.58-1.44-3.51l-2.97-2.97a4.91 4.91 0 0 0-3.49-1.45c-1.33 0-2.57.52-3.5 1.45-3.27 3.26-29.38 29.37-32.65 32.64-.93.93-1.44 2.18-1.44 3.5 0 1.34.51 2.58 1.44 3.52 3.27 3.26 29.38 29.38 32.65 32.64.93.93 2.17 1.44 3.5 1.44a4.9 4.9 0 0 0 3.49-1.44c.3-.3 2.67-2.67 2.97-2.96.93-.93 1.44-2.18 1.44-3.5 0-1.33-.51-2.5-1.44-3.43-1.29-1.28-7.71-7.68-19.26-19.19h60.72c2.72 0 5.02-2.36 5.02-5.08v-4.2c0-2.72-2.36-4.89-5.09-4.89.02 0 .06.01.14.03h-60.58z"/>
  </defs>
  <use fill-opacity=".5" xlink:href="#a"/>
  <use fill="#fff" xlink:href="#b"/>
  <use fill-opacity="0" stroke="#000" stroke-opacity="0" xlink:href="#b"/>
  <use fill-opacity=".5" xlink:href="#c"/>
  <use fill-opacity="0" stroke="#000" stroke-opacity="0" xlink:href="#c"/>
  <g>
    <use fill="#fff" xlink:href="#d"/>
    <use fill-opacity="0" stroke="#000" stroke-opacity="0" xlink:href="#d"/>
  </g>
  <g>
    <use fill-opacity="0" xlink:href="#e"/>
    <use fill-opacity="0" stroke="#000" stroke-opacity="0" xlink:href="#e"/>
  </g>
</svg>
