<svg xmlns="http://www.w3.org/2000/svg" xmlns:xlink="http://www.w3.org/1999/xlink" viewBox="158.863 -1 132.65 261.08">
  <defs>
    <path id="a" d="M272.69 256.13l-5.13-.73-5.05-.93-4.98-1.13-4.91-1.31-4.83-1.5-4.74-1.7-4.66-1.86-4.57-2.04-4.46-2.21-4.38-2.37-4.27-2.54-4.15-2.7-4.05-2.84-3.93-3-3.81-3.15-3.69-3.28-3.55-3.43-3.42-3.55-3.28-3.69-3.15-3.81-3-3.93-2.85-4.04-2.69-4.16-2.54-4.27-2.38-4.37-2.21-4.47-2.04-4.57-1.86-4.66-1.69-4.74-1.5-4.83-1.32-4.91-1.13-4.97-.92-5.06-.73-5.12-.53-5.18-.32-5.24-.11-5.3.11-5.3.32-5.24.53-5.18.73-5.12.92-5.06 1.13-4.97 1.32-4.91 1.5-4.83 1.69-4.74 1.86-4.66 2.04-4.57 2.21-4.47 2.38-4.37 2.54-4.27 2.69-4.16 2.85-4.04 3-3.93 3.15-3.81 3.28-3.69 3.42-3.55 3.55-3.43 3.69-3.29 3.81-3.14 3.93-3 4.05-2.84 4.15-2.7 4.27-2.54 4.38-2.38 4.46-2.2 4.57-2.04 4.66-1.86 4.74-1.7 4.83-1.5 4.91-1.31 4.98-1.13 5.05-.93 5.13-.73 5.18-.53 5.24-.31 5.3-.11h.1v257.08h-.1l-5.3-.11-5.24-.31-5.18-.53z"/>
    <path id="b" d="M244.01 133.78c-10.08 10.1-15.69 15.72-16.81 16.84a4.38 4.38 0 0 0-1.27 3.1c0 1.17.45 2.28 1.27 3.1.27.26 2.36 2.35 2.62 2.62a4.361 4.361 0 0 0 6.17 0c2.89-2.88 25.92-25.91 28.8-28.8.82-.82 1.27-1.92 1.27-3.08 0-1.19-.45-2.28-1.27-3.11-2.88-2.87-25.91-25.92-28.8-28.79a4.323 4.323 0 0 0-3.09-1.27 4.31 4.31 0 0 0-3.08 1.27c-.26.26-2.35 2.35-2.62 2.61a4.34 4.34 0 0 0-1.27 3.09c0 1.17.45 2.2 1.27 3.02 1.14 1.13 6.81 6.78 16.99 16.93h-53.56c-2.4 0-4.43 2.08-4.43 4.48v3.71c0 2.4 2.09 4.31 4.49 4.31-.01 0-.05-.01-.12-.03h53.44z"/>
    <path id="c" d="M244.01 133.78c-10.08 10.1-15.69 15.72-16.81 16.84a4.38 4.38 0 0 0-1.27 3.1c0 1.17.45 2.28 1.27 3.1.27.26 2.36 2.35 2.62 2.62a4.361 4.361 0 0 0 6.17 0c2.89-2.88 25.92-25.91 28.8-28.8.82-.82 1.27-1.92 1.27-3.08 0-1.19-.45-2.28-1.27-3.11-2.88-2.87-25.91-25.92-28.8-28.79a4.323 4.323 0 0 0-3.09-1.27 4.31 4.31 0 0 0-3.08 1.27c-.26.26-2.35 2.35-2.62 2.61a4.34 4.34 0 0 0-1.27 3.09c0 1.17.45 2.2 1.27 3.02 1.14 1.13 6.81 6.78 16.99 16.93h-53.56c-2.4 0-4.43 2.08-4.43 4.48v3.71c0 2.4 2.09 4.31 4.49 4.31-.01 0-.05-.01-.12-.03h53.44z"/>
    <path id="d" d="M267.56 255.4l-5.05-.93-4.98-1.13-4.91-1.31-4.83-1.5-4.74-1.7-4.66-1.86-4.57-2.04-4.46-2.21-4.38-2.37-4.27-2.54-4.15-2.7-4.05-2.84-3.93-3-3.81-3.15-3.69-3.28-3.55-3.43-3.42-3.55-3.28-3.69-3.15-3.81-3-3.93-2.85-4.04-2.69-4.16-2.54-4.27-2.38-4.37-2.21-4.47-2.04-4.57-1.86-4.66-1.69-4.74-1.5-4.83-1.32-4.91-1.13-4.97-.92-5.06-.73-5.12-.53-5.18-.32-5.24-.11-5.3.11-5.3.32-5.24.53-5.18.73-5.12.92-5.06 1.13-4.97 1.32-4.91 1.5-4.83 1.69-4.74 1.86-4.66 2.04-4.57 2.21-4.47 2.38-4.37 2.54-4.27 2.69-4.16 2.85-4.04 3-3.93 3.15-3.81 3.28-3.69 3.42-3.55 3.55-3.43 3.69-3.29 3.81-3.14 3.93-3 4.05-2.84 4.15-2.7 4.27-2.54 4.38-2.38 4.46-2.2 4.57-2.04 4.66-1.86 4.74-1.7 4.83-1.5 4.91-1.31 4.98-1.13 5.05-.93 5.13-.73 5.18-.53 5.24-.31 5.3-.11h.1v257.08h-.1l-5.3-.11-5.24-.31-5.18-.53-5.13-.73z"/>
    <path id="e" d="M267.56 255.4l-5.05-.93-4.98-1.13-4.91-1.31-4.83-1.5-4.74-1.7-4.66-1.86-4.57-2.04-4.46-2.21-4.38-2.37-4.27-2.54-4.15-2.7-4.05-2.84-3.93-3-3.81-3.15-3.69-3.28-3.55-3.43-3.42-3.55-3.28-3.69-3.15-3.81-3-3.93-2.85-4.04-2.69-4.16-2.54-4.27-2.38-4.37-2.21-4.47-2.04-4.57-1.86-4.66-1.69-4.74-1.5-4.83-1.32-4.91-1.13-4.97-.92-5.06-.73-5.12-.53-5.18-.32-5.24-.11-5.3.11-5.3.32-5.24.53-5.18.73-5.12.92-5.06 1.13-4.97 1.32-4.91 1.5-4.83 1.69-4.74 1.86-4.66 2.04-4.57 2.21-4.47 2.38-4.37 2.54-4.27 2.69-4.16 2.85-4.04 3-3.93 3.15-3.81 3.28-3.69 3.42-3.55 3.55-3.43 3.69-3.29 3.81-3.14 3.93-3 4.05-2.84 4.15-2.7 4.27-2.54 4.38-2.38 4.46-2.2 4.57-2.04 4.66-1.86 4.74-1.7 4.83-1.5 4.91-1.31 4.98-1.13 5.05-.93 5.13-.73 5.18-.53 5.24-.31 5.3-.11h.1v257.08h-.1l-5.3-.11-5.24-.31-5.18-.53-5.13-.73z"/>
    <path id="f" d="M227.2 150.62a4.38 4.38 0 0 0-1.27 3.1c0 1.17.45 2.28 1.27 3.1.27.26 2.36 2.35 2.62 2.62a4.361 4.361 0 0 0 6.17 0c2.89-2.88 25.92-25.91 28.8-28.8.82-.82 1.27-1.92 1.27-3.08 0-1.19-.45-2.28-1.27-3.11-2.88-2.87-25.91-25.92-28.8-28.79a4.323 4.323 0 0 0-3.09-1.27 4.31 4.31 0 0 0-3.08 1.27c-.26.26-2.35 2.35-2.62 2.61a4.34 4.34 0 0 0-1.27 3.09c0 1.17.45 2.2 1.27 3.02 1.14 1.13 6.81 6.78 16.99 16.93h-53.56c-2.4 0-4.43 2.08-4.43 4.48v3.71c0 2.4 2.09 4.31 4.49 4.31-.01 0-.05-.01-.12-.03h53.44l-16.81 16.84z"/>
    <path id="g" d="M227.2 150.62a4.38 4.38 0 0 0-1.27 3.1c0 1.17.45 2.28 1.27 3.1.27.26 2.36 2.35 2.62 2.62a4.361 4.361 0 0 0 6.17 0c2.89-2.88 25.92-25.91 28.8-28.8.82-.82 1.27-1.92 1.27-3.08 0-1.19-.45-2.28-1.27-3.11-2.88-2.87-25.91-25.92-28.8-28.79a4.323 4.323 0 0 0-3.09-1.27 4.31 4.31 0 0 0-3.08 1.27c-.26.26-2.35 2.35-2.62 2.61a4.34 4.34 0 0 0-1.27 3.09c0 1.17.45 2.2 1.27 3.02 1.14 1.13 6.81 6.78 16.99 16.93h-53.56c-2.4 0-4.43 2.08-4.43 4.48v3.71c0 2.4 2.09 4.31 4.49 4.31-.01 0-.05-.01-.12-.03h53.44l-16.81 16.84z"/>
    <path id="h" d="M227.2 150.62a4.38 4.38 0 0 0-1.27 3.1c0 1.17.45 2.28 1.27 3.1.27.26 2.36 2.35 2.62 2.62a4.361 4.361 0 0 0 6.17 0c2.89-2.88 25.92-25.91 28.8-28.8.82-.82 1.27-1.92 1.27-3.08 0-1.19-.45-2.28-1.27-3.11-2.88-2.87-25.91-25.92-28.8-28.79a4.323 4.323 0 0 0-3.09-1.27 4.31 4.31 0 0 0-3.08 1.27c-.26.26-2.35 2.35-2.62 2.61a4.34 4.34 0 0 0-1.27 3.09c0 1.17.45 2.2 1.27 3.02 1.14 1.13 6.81 6.78 16.99 16.93h-53.56c-2.4 0-4.43 2.08-4.43 4.48v3.71c0 2.4 2.09 4.31 4.49 4.31-.01 0-.05-.01-.12-.03h53.44l-16.81 16.84z"/>
    <path id="i" d="M227.2 150.62a4.38 4.38 0 0 0-1.27 3.1c0 1.17.45 2.28 1.27 3.1.27.26 2.36 2.35 2.62 2.62a4.361 4.361 0 0 0 6.17 0c2.89-2.88 25.92-25.91 28.8-28.8.82-.82 1.27-1.92 1.27-3.08 0-1.19-.45-2.28-1.27-3.11-2.88-2.87-25.91-25.92-28.8-28.79a4.323 4.323 0 0 0-3.09-1.27 4.31 4.31 0 0 0-3.08 1.27c-.26.26-2.35 2.35-2.62 2.61a4.34 4.34 0 0 0-1.27 3.09c0 1.17.45 2.2 1.27 3.02 1.14 1.13 6.81 6.78 16.99 16.93h-53.56c-2.4 0-4.43 2.08-4.43 4.48v3.71c0 2.4 2.09 4.31 4.49 4.31-.01 0-.05-.01-.12-.03h53.44l-16.81 16.84z"/>
  </defs>
  <use fill-opacity=".5" xlink:href="#a"/>
  <use fill-opacity="0" stroke="#000" stroke-opacity="0" xlink:href="#a"/>
  <use fill="#fff" xlink:href="#b"/>
  <use fill-opacity="0" stroke="#000" stroke-opacity="0" xlink:href="#b"/>
  <use fill-opacity="0" xlink:href="#c"/>
  <use fill-opacity="0" stroke="#000" stroke-opacity="0" xlink:href="#c"/>
  <use fill-opacity=".5" xlink:href="#d"/>
  <use fill-opacity="0" stroke="#000" stroke-opacity="0" xlink:href="#d"/>
  <use fill-opacity="0" xlink:href="#e"/>
  <use fill-opacity="0" stroke="#000" stroke-opacity="0" xlink:href="#e"/>
  <g>
    <use fill="#fff" xlink:href="#f"/>
    <use fill-opacity="0" stroke="#000" stroke-opacity="0" xlink:href="#f"/>
  </g>
  <g>
    <use fill-opacity="0" xlink:href="#g"/>
    <use fill-opacity="0" stroke="#000" stroke-opacity="0" xlink:href="#g"/>
  </g>
  <g>
    <use fill-opacity="0" xlink:href="#h"/>
    <use fill-opacity="0" stroke="#000" stroke-opacity="0" xlink:href="#h"/>
  </g>
  <g>
    <use fill-opacity="0" xlink:href="#i"/>
    <use fill-opacity="0" stroke="#000" stroke-opacity="0" xlink:href="#i"/>
  </g>
</svg>
